# xmcd
#
# Track frame offsets:
#	150
#	16118
#	37489
#	53151
#	78507
#	95715
#	112063
#	129479
#	145927
#	162841
#	180873
#	205732
#	219341
#	236288
#	251875
#
# Disc length: 3604 seconds
#
# Revision: 1
# Processed by: cddbd v1.5.2PL0 Copyright (c) Steve Scherf et al.
# Submitted via: audiograbber 1.83.01
#
DISCID=ce0e120f
DTITLE=The Revelations feat. Tre' Williams - The bleeding edge
DYEAR=2009
DGENRE=Other
TTITLE0=Stay free
TTITLE1=Graceful bow
TTITLE2=Truth shall set you free
TTITLE3=Let's straighten it out
TTITLE4=How do I tell him
TTITLE5=Sorry's not enough
TTITLE6=Everybody knows
TTITLE7=I don't want to know
TTITLE8=Because of you 
TTITLE9=Cheatin' - secret lovers
TTITLE10=It's too late
TTITLE11=Remember the last time
TTITLE12=I won't let go
TTITLE13=Heavy metal blues
TTITLE14=He's a hustler 
EXTD=
EXTT0=
EXTT1=
EXTT2=
EXTT3=
EXTT4=
EXTT5=
EXTT6=
EXTT7=
EXTT8=
EXTT9=
EXTT10=
EXTT11=
EXTT12=
EXTT13=
EXTT14=
PLAYORDER=
